<svg width="35" height="69" viewBox="0 0 35 69" fill="none" xmlns="http://www.w3.org/2000/svg">
<path d="M1.22387 1.55968C13.3517 4.40127 11.1329 3.64749 20.5766 11.2579C22.7335 12.9961 26.0204 15.2547 26.6352 17.642C27.5424 21.165 19.9108 29.5631 15.6173 24.9253C12.8425 21.928 13.6893 18.0024 18.2332 17.9051C25.6851 17.7456 31.2183 24.2214 33.1859 29.2043C35.3521 34.6902 32.8705 39.6348 26.7291 41.6451C23.9235 42.5635 19.6139 40.9321 22.2257 38.253C27.5977 32.7424 32.7293 41.9644 31.6564 46.1691C29.7237 53.7425 17.3123 61.5413 6.48534 57.5175C3.10018 56.2594 4.29763 55.3588 5.79188 54.8248C7.30809 54.2829 11.1884 51.9436 10.1224 52.9206C8.25886 54.6285 6.01979 54.9914 3.49861 55.6836C0.246768 56.5763 6.74817 61.4909 8.61552 63.1463C9.5958 64.0154 10.9849 65.7862 11.1891 66.8998C11.5924 69.0987 8.01695 62.8042 7.4513 60.6077" stroke="black" stroke-width="1.9455" stroke-linecap="round" stroke-linejoin="round"/>
</svg>
